<?xml version="1.0" standalone="no"?>
<!DOCTYPE svg PUBLIC "-//W3C//DTD SVG 20010904//EN"
 "http://www.w3.org/TR/2001/REC-SVG-20010904/DTD/svg10.dtd">
<svg version="1.0" xmlns="http://www.w3.org/2000/svg"
 width="900.000000pt" height="900.000000pt" viewBox="0 0 900.000000 900.000000"
 preserveAspectRatio="xMidYMid meet">

<g transform="translate(0.000000,900.000000) scale(0.100000,-0.100000)"
fill="#000000" stroke="none">
<path d="M4295 8439 c-823 -37 -1626 -347 -2295 -888 -134 -108 -441 -415
-552 -551 -495 -610 -789 -1317 -873 -2101 -19 -175 -22 -586 -6 -749 96 -952
482 -1776 1141 -2438 515 -516 1141 -869 1855 -1045 138 -34 172 -41 250 -52
22 -3 49 -8 61 -10 61 -13 250 -36 357 -42 254 -16 711 1 827 32 8 2 39 7 69
10 30 4 63 9 75 11 798 152 1492 513 2060 1072 676 665 1075 1509 1166 2467
14 140 17 486 7 630 -37 498 -173 995 -396 1450 -204 414 -421 716 -755 1050
-334 333 -628 546 -1039 750 -607 302 -1249 435 -1952 404z m305 -2524 l-345
-345 -437 0 c-241 0 -438 -3 -438 -8 0 -4 173 -180 385 -392 l385 -385 -462
-462 -463 -463 -755 0 -756 0 366 365 365 365 295 0 295 -1 62 68 62 68 -445
445 -444 445 322 323 323 322 1015 0 1015 0 -345 -345z m1980 -1032 c-389
-390 -1030 -1030 -1424 -1424 l-716 -716 0 1411 0 1411 372 -2 373 -3 5 -605
5 -605 620 620 620 620 426 0 427 0 -708 -707z"/>
</g>
</svg>
